<svg id="Layer_1" enable-background="new 0 0 512 512" height="512" viewBox="0 0 512 512" width="512" xmlns="http://www.w3.org/2000/svg"><g><path d="m256 10c-71 0-226 70.138-226 206s141 286 226 286 226-150.138 226-286-155-206-226-206z" fill="#89df8f"/><path d="m96.554 166.553s-6.653 59.884 26.178 92.715c32.831 32.832 92.715 26.178 92.715 26.178s6.653-59.883-26.178-92.715c-32.832-32.831-92.715-26.178-92.715-26.178z" fill="#8690af"/><path d="m322.732 192.732c-32.831 32.832-26.178 92.715-26.178 92.715s59.883 6.653 92.715-26.178c32.831-32.831 26.178-92.715 26.178-92.715s-59.884-6.654-92.715 26.178z" fill="#8690af"/><g><circle cx="427.195" cy="374.96" r="10"/><path d="m484.8 165.33c-26.955-92.022-133.714-165.426-228.8-165.33-9.7.01-20.48 1.18-32.039 3.47-100.302 19.869-204.047 103.009-203.961 212.53.05 64.136 26.099 125.936 64.001 176.794 35.206 47.24 89.718 102.268 149 116.308 7.521 1.781 15.256 2.922 22.999 2.898 22.68-.07 48.3-9.12 76.14-26.891 26.02-16.67 52.16-40.109 75.59-67.779 1.72-2.04 2.55-4.63 2.33-7.29s-1.46-5.08-3.5-6.8c-1.81-1.53-4.1-2.37-6.46-2.37-2.95 0-5.73 1.29-7.64 3.54-22.15 26.18-46.74 48.27-71.11 63.859-23.79 15.3-46.91 23.73-65.1 23.73h-.5c-18.3 0-41.57-8.521-65.51-23.99-37.46-24.07-74.89-63.12-102.69-107.16-30.71-48.499-47.59-99.949-47.55-144.849.01-29.92 8.05-58.28 23.87-84.3 19.92-32.771 53.31-62.41 94.02-83.471 33.51-17.41 71-28.229 97.82-28.229h.44c16.92 0 39.43 4.56 61.77 12.51 40.21 14.24 77.18 37.51 104.08 65.54 33.15 34.55 49.97 74.24 50 117.95.02 36.02-10.66 76-30.88 115.62-1.21 2.38-1.42 5.09-.6 7.63.83 2.54 2.59 4.609 4.97 5.819 1.42.73 2.95 1.101 4.53 1.101 3.79 0 7.2-2.101 8.92-5.46 10.43-20.48 18.53-41.11 24.07-61.32 5.96-21.71 8.98-43.04 8.99-63.39.01-17.3-2.42-34.35-7.2-50.67z"/><path d="m223.424 397.662c10.808 2.882 21.692 4.323 32.577 4.323s21.769-1.441 32.577-4.323c5.336-1.423 8.509-6.902 7.086-12.238-1.423-5.337-6.904-8.512-12.239-7.086-18.196 4.852-36.65 4.852-54.847 0-5.337-1.424-10.816 1.749-12.239 7.086-1.424 5.336 1.748 10.815 7.085 12.238z"/><path d="m225.386 286.551c.293-2.641 6.771-65.071-29.046-100.891-35.818-35.817-98.249-29.342-100.89-29.045-4.648.516-8.318 4.186-8.834 8.834-.293 2.641-6.771 65.071 29.047 100.891 25.897 25.896 65.704 29.683 86.768 29.683 8.069 0 13.391-.556 14.122-.638 4.647-.516 8.316-4.186 8.833-8.834zm-19.438-10.605c-16.626.348-54.001-1.605-76.144-23.749-22.147-22.147-24.09-59.526-23.75-76.144 16.626-.34 54.001 1.605 76.145 23.749 22.145 22.148 24.088 59.527 23.749 76.144z"/><path d="m396.34 266.34c35.818-35.819 29.34-98.25 29.046-100.891-.517-4.648-4.186-8.318-8.834-8.834-2.641-.298-65.073-6.773-100.89 29.045-35.818 35.819-29.34 98.25-29.046 100.891.517 4.648 4.186 8.318 8.834 8.834.731.082 6.049.638 14.122.638 21.064 0 60.872-3.789 86.768-29.683zm-90.287 9.607c-.339-16.628 1.606-54.001 23.75-76.145 22.147-22.147 59.522-24.088 76.144-23.75.339 16.628-1.606 54.001-23.75 76.145-22.147 22.147-59.523 24.083-76.144 23.75z"/></g></g></svg>